<?xml version="1.0" encoding="UTF-8"?>
<svg width="1920" height="1080" viewBox="0 0 1920 1080" xmlns="http://www.w3.org/2000/svg">
  <!-- Black background -->
  <rect width="1920" height="1080" fill="#000000"/>
  
  <!-- Base color pools -->
  <defs>
    <radialGradient id="pool1" cx="30%" cy="40%" r="40%" fx="30%" fy="40%">
      <stop offset="0%" stop-color="#b83d99" stop-opacity="0.9"/>
      <stop offset="100%" stop-color="#000000" stop-opacity="0"/>
    </radialGradient>
    
    <radialGradient id="pool2" cx="70%" cy="60%" r="40%" fx="70%" fy="60%">
      <stop offset="0%" stop-color="#189ccd" stop-opacity="0.9"/>
      <stop offset="100%" stop-color="#000000" stop-opacity="0"/>
    </radialGradient>
    
    <radialGradient id="pool3" cx="40%" cy="80%" r="35%" fx="40%" fy="80%">
      <stop offset="0%" stop-color="#b83d99" stop-opacity="0.8"/>
      <stop offset="100%" stop-color="#000000" stop-opacity="0"/>
    </radialGradient>
    
    <radialGradient id="pool4" cx="60%" cy="20%" r="35%" fx="60%" fy="20%">
      <stop offset="0%" stop-color="#189ccd" stop-opacity="0.8"/>
      <stop offset="100%" stop-color="#000000" stop-opacity="0"/>
    </radialGradient>
    
    <!-- Marble swirl filters -->
    <filter id="marbleTexture" x="-50%" y="-50%" width="200%" height="200%">
      <feTurbulence type="fractalNoise" baseFrequency="0.01" numOctaves="5" seed="5" result="turbulence"/>
      <feDisplacementMap in="SourceGraphic" in2="turbulence" scale="120" xChannelSelector="R" yChannelSelector="G"/>
    </filter>
    
    <filter id="marbleTexture2" x="-50%" y="-50%" width="200%" height="200%">
      <feTurbulence type="fractalNoise" baseFrequency="0.015" numOctaves="3" seed="10" result="turbulence"/>
      <feDisplacementMap in="SourceGraphic" in2="turbulence" scale="80" xChannelSelector="R" yChannelSelector="G"/>
    </filter>
    
    <!-- Glossy overlay -->
    <linearGradient id="glossy" x1="0%" y1="0%" x2="100%" y2="100%">
      <stop offset="0%" stop-color="#ffffff" stop-opacity="0.15"/>
      <stop offset="50%" stop-color="#ffffff" stop-opacity="0.05"/>
      <stop offset="100%" stop-color="#ffffff" stop-opacity="0.1"/>
    </linearGradient>
  </defs>
  
  <!-- Color pools -->
  <rect width="1920" height="1080" fill="url(#pool1)"/>
  <rect width="1920" height="1080" fill="url(#pool2)"/>
  <rect width="1920" height="1080" fill="url(#pool3)"/>
  <rect width="1920" height="1080" fill="url(#pool4)"/>
  
  <!-- Marble swirl patterns -->
  <g filter="url(#marbleTexture)">
    <path d="M0,540 C480,340 960,640 1440,440 S1920,540 1920,540" stroke="#b83d99" stroke-width="150" stroke-opacity="0.3" fill="none"/>
    <path d="M0,340 C480,540 960,340 1440,540 S1920,340 1920,340" stroke="#189ccd" stroke-width="150" stroke-opacity="0.3" fill="none"/>
  </g>
  
  <g filter="url(#marbleTexture2)">
    <path d="M0,740 C480,540 960,740 1440,540 S1920,740 1920,740" stroke="#b83d99" stroke-width="100" stroke-opacity="0.2" fill="none"/>
    <path d="M0,240 C480,440 960,240 1440,440 S1920,240 1920,240" stroke="#189ccd" stroke-width="100" stroke-opacity="0.2" fill="none"/>
  </g>
  
  <!-- Additional swirl details -->
  <g opacity="0.6">
    <path d="M0,640 C640,240 1280,840 1920,440" stroke="#b83d99" stroke-width="40" stroke-opacity="0.4" fill="none" filter="url(#marbleTexture)"/>
    <path d="M0,440 C640,840 1280,440 1920,840" stroke="#189ccd" stroke-width="40" stroke-opacity="0.4" fill="none" filter="url(#marbleTexture)"/>
  </g>
  
  <!-- Glossy overlay -->
  <rect width="1920" height="1080" fill="url(#glossy)"/>
  
  <!-- Fine details -->
  <g opacity="0.7">
    <circle cx="400" cy="300" r="100" fill="#b83d99" opacity="0.1" filter="url(#marbleTexture)"/>
    <circle cx="1200" cy="700" r="150" fill="#189ccd" opacity="0.1" filter="url(#marbleTexture)"/>
    <circle cx="800" cy="500" r="120" fill="#b83d99" opacity="0.1" filter="url(#marbleTexture2)"/>
    <circle cx="1600" cy="300" r="80" fill="#189ccd" opacity="0.1" filter="url(#marbleTexture2)"/>
  </g>
</svg>
